<svg id="Layer_1" data-name="Layer 1" xmlns="http://www.w3.org/2000/svg" xmlns:xlink="http://www.w3.org/1999/xlink" viewBox="0 0 33.39 39.74"><defs><style>.cls-1{fill:url(#linear-gradient);}.cls-2,.cls-3,.cls-4{fill:#43328a;}.cls-3{opacity:0.6;}.cls-3,.cls-4{isolation:isolate;}.cls-4{opacity:0.8;}</style><linearGradient id="linear-gradient" x1="305.53" y1="465.74" x2="305.53" y2="425.99" gradientTransform="matrix(1, 0, 0, -1, -8.36, 867.06)" gradientUnits="userSpaceOnUse"><stop offset="0" stop-color="#f4f7fd"/><stop offset="1" stop-color="#d0e2f2"/></linearGradient></defs><path class="cls-1" d="M313.86,403.49v26.29l-16.69,11.28-16.7-11.28V403.49h0a63.78,63.78,0,0,1,16.66-2.17A65.49,65.49,0,0,1,313.86,403.49Z" transform="translate(-280.47 -401.32)"/><path class="cls-2" d="M296.76,420.75a.59.59,0,0,0,.6,0l9.31-5.59a.55.55,0,0,0,0-1l-9.31-5.63a.59.59,0,0,0-.6,0l-9.31,5.63a.52.52,0,0,0-.26.47.57.57,0,0,0,.26.48Z" transform="translate(-280.47 -401.32)"/><path class="cls-3" d="M305.77,420.39l-8.41,5.05a.59.59,0,0,1-.6,0l-8.37-5.05-.94.54a.54.54,0,0,0-.26.48.61.61,0,0,0,.26.47l9.31,5.63a.59.59,0,0,0,.6,0l9.31-5.63a.55.55,0,0,0,0-.95Z" transform="translate(-280.47 -401.32)"/><path class="cls-4" d="M305.77,417l-8.41,5.05a.59.59,0,0,1-.6,0L288.39,417l-.94.54a.63.63,0,0,0-.26.48.61.61,0,0,0,.26.47l9.31,5.59a.59.59,0,0,0,.6,0l9.31-5.59a.62.62,0,0,0,.27-.47.64.64,0,0,0-.27-.48Z" transform="translate(-280.47 -401.32)"/></svg>