<svg id="Layer_1" data-name="Layer 1" xmlns="http://www.w3.org/2000/svg" xmlns:xlink="http://www.w3.org/1999/xlink" viewBox="0 0 33.39 39.45"><defs><style>.cls-1{fill:url(#linear-gradient);}.cls-2{fill:#43328a;}</style><linearGradient id="linear-gradient" x1="305.53" y1="465.59" x2="305.53" y2="426.14" gradientTransform="matrix(1, 0, 0, -1, -8.36, 867.06)" gradientUnits="userSpaceOnUse"><stop offset="0" stop-color="#f4f7fd"/><stop offset="1" stop-color="#d0e2f2"/></linearGradient></defs><path class="cls-1" d="M313.86,403.63v26.09l-16.69,11.19-16.7-11.19V403.63h0a63.78,63.78,0,0,1,16.66-2.16A65.93,65.93,0,0,1,313.86,403.63Z" transform="translate(-280.47 -401.47)"/><path class="cls-2" d="M297.89,418.37v8.83a.34.34,0,0,0,.51.31l6.94-4.17a.39.39,0,0,0,.17-.31v-8.65a.34.34,0,0,0-.5-.3l-6.95,4A.34.34,0,0,0,297.89,418.37Z" transform="translate(-280.47 -401.47)"/><path class="cls-2" d="M304.69,412.27a.37.37,0,0,1,0,.64l-7,4-.22.12a.32.32,0,0,1-.35,0l-.22-.12-7-4a.37.37,0,0,1,0-.64l7-4.24.22-.13a.36.36,0,0,1,.35,0l.22.13Z" transform="translate(-280.47 -401.47)"/><path class="cls-2" d="M289,414.38V423a.39.39,0,0,0,.17.31l6.94,4.17a.34.34,0,0,0,.51-.31v-8.83a.34.34,0,0,0-.17-.31l-6.94-4A.34.34,0,0,0,289,414.38Z" transform="translate(-280.47 -401.47)"/></svg>