<svg id="Layer_1" data-name="Layer 1" xmlns="http://www.w3.org/2000/svg" xmlns:xlink="http://www.w3.org/1999/xlink" viewBox="0 0 33.39 39.45"><defs><style>.cls-1{fill:url(#linear-gradient);}.cls-2{fill:#43328a;}</style><linearGradient id="linear-gradient" x1="305.53" y1="465.59" x2="305.53" y2="426.14" gradientTransform="matrix(1, 0, 0, -1, -8.36, 867.06)" gradientUnits="userSpaceOnUse"><stop offset="0" stop-color="#f4f7fd"/><stop offset="1" stop-color="#d0e2f2"/></linearGradient></defs><path class="cls-1" d="M313.86,403.63v26.09l-16.69,11.19-16.7-11.19V403.63h0a63.78,63.78,0,0,1,16.66-2.16A65.93,65.93,0,0,1,313.86,403.63Z" transform="translate(-280.47 -401.47)"/><path class="cls-2" d="M299.48,409.34a.68.68,0,0,1,.1.59l-3,14.51a.81.81,0,0,1-.92.75l-.5,0a.75.75,0,0,1-.61-.27.86.86,0,0,1-.12-.71L297.14,411a1,1,0,0,1,.21-.41,4.09,4.09,0,0,0,.83-1,.76.76,0,0,1,.78-.47h0A.63.63,0,0,1,299.48,409.34Z" transform="translate(-280.47 -401.47)"/><path class="cls-2" d="M305.33,422.31a2.17,2.17,0,0,1-.82,1.86,4.27,4.27,0,0,1-2.31.6.31.31,0,0,1-.32-.31v-.88a.3.3,0,0,1,.28-.3,2,2,0,0,0,.94-.3,1.19,1.19,0,0,0,.44-1.05V419.8a1.94,1.94,0,0,1,1.88-2.22v-.1c-1.26-.21-1.89-.85-1.89-1.93v-2.41a1.27,1.27,0,0,0-.37-1,1.79,1.79,0,0,0-1-.36.31.31,0,0,1-.28-.3v-.89a.31.31,0,0,1,.32-.31,4.09,4.09,0,0,1,2.33.62,2.42,2.42,0,0,1,.8,2v2.33a1.28,1.28,0,0,0,.52,1.15,2.53,2.53,0,0,0,1.27.34.31.31,0,0,1,.29.3v1a.31.31,0,0,1-.29.3,2.74,2.74,0,0,0-1.26.34,1.29,1.29,0,0,0-.53,1.16v2.5Z" transform="translate(-280.47 -401.47)"/><path class="cls-2" d="M288.87,412.74a2.14,2.14,0,0,1,.82-1.86,4.23,4.23,0,0,1,2.3-.6.31.31,0,0,1,.32.31v.88a.3.3,0,0,1-.28.3,2,2,0,0,0-.94.3,1.18,1.18,0,0,0-.43,1.05v2.13a2.35,2.35,0,0,1-.44,1.52,2.29,2.29,0,0,1-1.45.71v.09c1.26.21,1.89.86,1.89,1.94v2.4a1.3,1.3,0,0,0,.38,1,1.68,1.68,0,0,0,1,.35.31.31,0,0,1,.28.31v.88a.31.31,0,0,1-.32.31,4,4,0,0,1-2.32-.62,2.39,2.39,0,0,1-.81-2v-2.33a1.25,1.25,0,0,0-.52-1.15,2.52,2.52,0,0,0-1.26-.34.31.31,0,0,1-.3-.3v-1a.31.31,0,0,1,.3-.3,2.74,2.74,0,0,0,1.25-.34,1.29,1.29,0,0,0,.53-1.16Z" transform="translate(-280.47 -401.47)"/></svg>