<svg id="Layer_1" data-name="Layer 1" xmlns="http://www.w3.org/2000/svg" xmlns:xlink="http://www.w3.org/1999/xlink" viewBox="0 0 33.39 39.45"><defs><style>.cls-1{fill:url(#linear-gradient);}.cls-2{fill:#43328a;}</style><linearGradient id="linear-gradient" x1="305.53" y1="465.59" x2="305.53" y2="426.14" gradientTransform="matrix(1, 0, 0, -1, -8.36, 867.06)" gradientUnits="userSpaceOnUse"><stop offset="0" stop-color="#f4f7fd"/><stop offset="1" stop-color="#d0e2f2"/></linearGradient></defs><path class="cls-1" d="M313.86,403.63v26.09l-16.69,11.19-16.7-11.19V403.63h0a63.78,63.78,0,0,1,16.66-2.16A65.93,65.93,0,0,1,313.86,403.63Z" transform="translate(-280.47 -401.47)"/><path class="cls-2" d="M302.85,412H305a.19.19,0,0,0,.2-.2v-2.18a.19.19,0,0,0-.2-.2h-2.16a.19.19,0,0,0-.2.2v2.18A.19.19,0,0,0,302.85,412Z" transform="translate(-280.47 -401.47)"/><path class="cls-2" d="M302.85,415.06H305a.2.2,0,0,0,.2-.21v-2.18a.19.19,0,0,0-.2-.2h-2.16a.2.2,0,0,0-.2.2v2.18A.2.2,0,0,0,302.85,415.06Z" transform="translate(-280.47 -401.47)"/><path class="cls-2" d="M302.85,418.1H305a.19.19,0,0,0,.2-.2v-2.18a.2.2,0,0,0-.2-.21h-2.16a.2.2,0,0,0-.2.21v2.18A.2.2,0,0,0,302.85,418.1Z" transform="translate(-280.47 -401.47)"/><path class="cls-2" d="M302.85,421.14H305a.19.19,0,0,0,.2-.2v-2.18a.19.19,0,0,0-.2-.2h-2.16a.19.19,0,0,0-.2.2v2.18A.19.19,0,0,0,302.85,421.14Z" transform="translate(-280.47 -401.47)"/><path class="cls-2" d="M302.85,424.19H305a.2.2,0,0,0,.2-.21V421.8a.19.19,0,0,0-.2-.2h-2.16a.2.2,0,0,0-.2.2V424A.2.2,0,0,0,302.85,424.19Z" transform="translate(-280.47 -401.47)"/><path class="cls-2" d="M299.87,412H302a.19.19,0,0,0,.2-.2v-2.18a.19.19,0,0,0-.2-.2h-2.16a.19.19,0,0,0-.2.2v2.18A.19.19,0,0,0,299.87,412Z" transform="translate(-280.47 -401.47)"/><path class="cls-2" d="M299.87,415.06H302a.2.2,0,0,0,.2-.21v-2.18a.2.2,0,0,0-.2-.2h-2.16a.19.19,0,0,0-.2.2v2.18A.2.2,0,0,0,299.87,415.06Z" transform="translate(-280.47 -401.47)"/><path class="cls-2" d="M299.87,418.1H302a.2.2,0,0,0,.2-.2v-2.18a.2.2,0,0,0-.2-.21h-2.16a.2.2,0,0,0-.2.21v2.18A.19.19,0,0,0,299.87,418.1Z" transform="translate(-280.47 -401.47)"/><path class="cls-2" d="M299.87,421.14H302a.19.19,0,0,0,.2-.2v-2.18a.19.19,0,0,0-.2-.2h-2.16a.19.19,0,0,0-.2.2v2.18A.19.19,0,0,0,299.87,421.14Z" transform="translate(-280.47 -401.47)"/><path class="cls-2" d="M299.87,424.19H302a.2.2,0,0,0,.2-.21V421.8a.2.2,0,0,0-.2-.2h-2.16a.19.19,0,0,0-.2.2V424A.2.2,0,0,0,299.87,424.19Z" transform="translate(-280.47 -401.47)"/><path class="cls-2" d="M296.85,415.06H299a.2.2,0,0,0,.2-.21v-2.18a.19.19,0,0,0-.2-.2h-2.16a.2.2,0,0,0-.2.2v2.18A.22.22,0,0,0,296.85,415.06Z" transform="translate(-280.47 -401.47)"/><path class="cls-2" d="M296.85,418.1H299a.19.19,0,0,0,.2-.2v-2.18a.2.2,0,0,0-.2-.21h-2.16a.2.2,0,0,0-.2.21v2.18A.21.21,0,0,0,296.85,418.1Z" transform="translate(-280.47 -401.47)"/><path class="cls-2" d="M296.85,421.14H299a.19.19,0,0,0,.2-.2v-2.18a.19.19,0,0,0-.2-.2h-2.16a.19.19,0,0,0-.2.2v2.18A.21.21,0,0,0,296.85,421.14Z" transform="translate(-280.47 -401.47)"/><path class="cls-2" d="M293.86,424.19H296a.2.2,0,0,0,.19-.21V421.8a.19.19,0,0,0-.19-.2h-2.17a.2.2,0,0,0-.2.2V424A.22.22,0,0,0,293.86,424.19Z" transform="translate(-280.47 -401.47)"/><path class="cls-2" d="M302.85,427.23H305a.19.19,0,0,0,.2-.2v-2.18a.2.2,0,0,0-.2-.21h-2.16a.2.2,0,0,0-.2.21V427A.2.2,0,0,0,302.85,427.23Z" transform="translate(-280.47 -401.47)"/><path class="cls-2" d="M299.87,427.23H302a.2.2,0,0,0,.2-.2v-2.18a.2.2,0,0,0-.2-.21h-2.16a.2.2,0,0,0-.2.21V427A.19.19,0,0,0,299.87,427.23Z" transform="translate(-280.47 -401.47)"/><path class="cls-2" d="M296.85,427.23H299a.19.19,0,0,0,.2-.2v-2.18a.2.2,0,0,0-.2-.21h-2.16a.2.2,0,0,0-.2.21V427A.21.21,0,0,0,296.85,427.23Z" transform="translate(-280.47 -401.47)"/><path class="cls-2" d="M293.86,412H296a.19.19,0,0,0,.19-.2v-2.18a.19.19,0,0,0-.19-.2h-2.17a.19.19,0,0,0-.2.2v2.18A.19.19,0,0,0,293.86,412Z" transform="translate(-280.47 -401.47)"/><path class="cls-2" d="M287.86,412H290a.19.19,0,0,0,.2-.2v-2.18a.19.19,0,0,0-.2-.2h-2.16a.19.19,0,0,0-.2.2v2.18A.19.19,0,0,0,287.86,412Z" transform="translate(-280.47 -401.47)"/><path class="cls-2" d="M293.86,418.1H296a.19.19,0,0,0,.19-.2v-2.18a.2.2,0,0,0-.19-.21h-2.17a.2.2,0,0,0-.2.21v2.18A.2.2,0,0,0,293.86,418.1Z" transform="translate(-280.47 -401.47)"/><path class="cls-2" d="M290.88,415.06H293a.2.2,0,0,0,.2-.21v-2.18a.2.2,0,0,0-.2-.2h-2.16a.19.19,0,0,0-.2.2v2.18A.2.2,0,0,0,290.88,415.06Z" transform="translate(-280.47 -401.47)"/><path class="cls-2" d="M290.88,424.19H293a.2.2,0,0,0,.2-.21V421.8a.2.2,0,0,0-.2-.2h-2.16a.19.19,0,0,0-.2.2V424A.2.2,0,0,0,290.88,424.19Z" transform="translate(-280.47 -401.47)"/><path class="cls-2" d="M290.88,421.14H293a.19.19,0,0,0,.2-.2v-2.18a.19.19,0,0,0-.2-.2h-2.16a.19.19,0,0,0-.2.2v2.18A.21.21,0,0,0,290.88,421.14Z" transform="translate(-280.47 -401.47)"/><path class="cls-2" d="M287.86,421.14H290a.19.19,0,0,0,.2-.2v-2.18a.19.19,0,0,0-.2-.2h-2.16a.19.19,0,0,0-.2.2v2.18A.19.19,0,0,0,287.86,421.14Z" transform="translate(-280.47 -401.47)"/><path class="cls-2" d="M293.86,427.23H296a.19.19,0,0,0,.19-.2v-2.18a.2.2,0,0,0-.19-.21h-2.17a.2.2,0,0,0-.2.21V427A.2.2,0,0,0,293.86,427.23Z" transform="translate(-280.47 -401.47)"/><path class="cls-2" d="M287.86,427.23H290a.19.19,0,0,0,.2-.2v-2.18a.2.2,0,0,0-.2-.21h-2.16a.2.2,0,0,0-.2.21V427A.2.2,0,0,0,287.86,427.23Z" transform="translate(-280.47 -401.47)"/></svg>